<svg width="42" height="50" viewBox="0 0 42 50" fill="none" xmlns="http://www.w3.org/2000/svg">
<path d="M14.4375 36.9561V47.8717C14.4375 49.0469 15.6579 49.9995 17.1633 49.9995C18.6683 49.9995 19.8892 49.0469 19.8892 47.8717V37.3474C17.8012 37.3274 15.9814 37.1725 14.4375 36.9561ZM24.9925 41.2698C25.0669 39.5578 25.3414 38.1621 25.7269 37.0254C24.2996 37.2052 22.6551 37.3295 20.7983 37.3474V47.8717C20.7983 49.0469 22.0183 49.9995 23.5241 49.9995C25.0288 49.9995 26.2499 49.0469 26.2499 47.8717V43.0412C26.0376 42.9453 25.8424 42.8242 25.6704 42.6804C25.21 42.2963 24.9696 41.7952 24.9925 41.2698Z" fill="#232529"/>
<path d="M20.356 36.8262C22.5094 36.8262 24.3784 36.6693 25.9526 36.4438C27.1425 33.4532 29.0472 32.4725 29.7138 32.2128C29.8977 32.1125 30.0962 32.0382 30.3034 31.9886C29.5332 31.2471 29.0661 30.2902 29.0661 29.2447C29.0661 28.3169 29.4366 27.4603 30.0573 26.7602L27.4319 16.243C27.8167 16.6396 28.2154 17.1111 28.6159 17.669C29.8212 19.3491 31.0403 21.8219 31.9371 25.4506C32.644 25.1588 33.4402 24.9906 34.285 24.9906C34.6815 24.9906 35.066 25.0301 35.4373 25.0986C33.445 16.808 29.7728 13.5009 27.2464 12.1836C26.0892 11.5803 25.1721 11.3935 24.7676 11.3373C24.304 11.2428 22.345 10.8691 20.356 10.8691C18.3666 10.8691 16.4076 11.2428 15.9441 11.3373C15.5395 11.3933 14.6222 11.5803 13.4647 12.1838C10.6641 13.6444 6.45611 17.5517 4.68908 27.9801L0 30.9872L7.85859 39.1299L11.8378 36.5787L12.635 36.0675C14.5492 36.4746 17.1324 36.8262 20.356 36.8262ZM4.66015 28.8407C4.81916 29.4078 5.39357 29.8621 6.14267 29.9426C6.22056 29.951 6.29817 29.9552 6.37471 29.9552C7.24308 29.9552 7.9984 29.4303 8.11523 28.7095C8.25099 27.8708 8.40271 27.081 8.56713 26.3357L13.0423 23.4663L19.8976 30.5695L7.99462 38.2015L1.13935 31.0983L4.66015 28.8407ZM12.1001 17.6531C12.4995 17.0979 12.8973 16.6297 13.2819 16.2353L11.4289 23.6592L10.4431 24.2912L8.7997 25.3451C9.69539 21.76 10.9037 19.3163 12.1001 17.6531Z" fill="#232529"/>
<path d="M20.3437 9.78258C23.6056 9.78258 26.2499 7.59268 26.2499 4.89129C26.2499 2.18991 23.6056 0 20.3437 0C17.0818 0 14.4375 2.18991 14.4375 4.89129C14.4375 7.59268 17.0818 9.78258 20.3437 9.78258Z" fill="#232529"/>
<path d="M26.2511 41.276C26.2255 41.9064 26.8124 42.4349 27.5616 42.4565C27.5774 42.4569 27.5929 42.4571 27.6084 42.4571C28.3368 42.4571 28.9392 41.9708 28.9643 41.3534C29.0483 39.2648 29.4263 37.8259 29.8591 36.8437V42.2757V48.3685C29.8591 49.2701 30.7271 50.0006 31.7983 50.0006C32.8694 50.0006 33.7374 49.2701 33.7374 48.3685V43.1459H34.513V48.3685C34.513 49.2701 35.381 50.0006 36.4522 50.0006C37.5233 50.0006 38.3913 49.2701 38.3913 48.3685V40.379V36.8252C38.822 37.8064 39.2013 39.2502 39.2861 41.3532C39.3112 41.9708 39.9136 42.4569 40.642 42.4569C40.6575 42.4569 40.673 42.4567 40.6888 42.4563C41.4381 42.4347 42.025 41.9064 41.9994 41.2757C41.7196 34.3298 38.3678 32.9293 37.9864 32.7924C37.9846 32.7917 37.9828 32.7915 37.981 32.7911C37.8067 32.6788 37.5919 32.6094 37.3568 32.6094H36.8607C36.0742 33.0452 35.1348 33.3009 34.125 33.3009C33.1151 33.3009 32.1755 33.0452 31.3892 32.6094H30.8931C30.656 32.6094 30.4393 32.6801 30.2645 32.7943L30.2638 32.7926C29.8824 32.9295 26.5308 34.33 26.2511 41.276Z" fill="#232529"/>
<path d="M34.1252 32.6087C36.2998 32.6087 38.0627 30.9054 38.0627 28.8043C38.0627 26.7033 36.2998 25 34.1252 25C31.9506 25 30.1877 26.7033 30.1877 28.8043C30.1877 30.9054 31.9506 32.6087 34.1252 32.6087Z" fill="#232529"/>
<path d="M7.0162 32.7551L7.16705 32.9357C7.20259 32.9785 7.21073 33.0042 7.17573 33.046C7.1353 33.0918 7.05066 33.1591 6.98826 33.1994C6.57724 33.4682 6.20991 33.3162 5.88787 32.9297C5.57453 32.5536 5.58239 32.2111 5.94539 31.9741C6.0105 31.9313 6.10491 31.8811 6.16351 31.8624C6.2194 31.8456 6.24192 31.8614 6.27719 31.9042L6.42369 32.08L6.68386 31.883L6.34962 31.4815C6.1372 31.5158 5.89656 31.6261 5.71804 31.7428C5.27284 32.0332 5.0124 32.5402 5.55608 33.1932C6.03519 33.7679 6.6003 33.8369 7.17003 33.4648C7.38273 33.326 7.56016 33.1553 7.6448 32.9994L7.30622 32.5928L7.0162 32.7551ZM7.79917 32.7126L7.95815 32.9035L9.27368 32.0447L8.90987 31.608L8.62283 31.7685L8.75903 31.9318C8.80053 31.9815 8.80108 32.0087 8.73895 32.0495L8.27394 32.3531L7.30378 31.1882C7.25332 31.1282 7.26146 31.0958 7.31111 31.0554L7.39331 30.986L7.23677 30.7979L6.57345 31.231L6.7384 31.4294L6.89792 31.3369L7.88707 32.5236C7.93509 32.5817 7.92777 32.6098 7.8811 32.6485L7.79917 32.7126ZM8.82576 30.0894L9.35154 31.5718C9.36999 31.6253 9.37894 31.6623 9.32007 31.712L9.25794 31.7646L9.41475 31.9527L10.0271 31.5526L9.86212 31.3547L9.71101 31.4414L9.5892 31.1061L10.2354 30.6839L10.4801 30.8301C10.542 30.8676 10.5436 30.9015 10.494 30.9418L10.4088 31.0127L10.5656 31.2007L11.2403 30.7602L11.0754 30.5623L10.9224 30.6464L9.11877 29.569L8.50075 29.9729L8.6657 30.1708L8.82576 30.0894ZM9.15105 29.9703L10.0035 30.5102L9.47064 30.8582L9.14264 29.9753L9.15105 29.9703ZM11.7238 30.1274L10.7327 28.9373C10.6866 28.8821 10.6939 28.8542 10.7409 28.8155L10.8222 28.7507L10.6635 28.56L10.0086 28.9875L10.1736 29.1856L10.3301 29.0951L11.3171 30.2801C11.3692 30.3426 11.3572 30.3702 11.3106 30.4086L11.2316 30.4715L11.3906 30.6625L12.0455 30.2347L11.8806 30.0368L11.7238 30.1274ZM11.5282 27.9958L10.9696 28.3606L11.1345 28.5588L11.2913 28.4682L12.1834 29.7068C12.233 29.7717 12.2249 29.8039 12.1779 29.8423L12.099 29.9052L12.258 30.0961L12.879 29.6907L12.714 29.4928L12.5632 29.5795L11.7805 28.5247L11.7862 28.5208L13.0908 29.2618L13.3516 29.0915L12.9481 27.7506L12.9538 27.7468L13.7916 28.6527C13.847 28.7137 13.857 28.7418 13.8027 28.7814L13.7181 28.8477L13.8771 29.0387L14.5038 28.6296L14.3388 28.4315L14.1853 28.5204L13.1134 27.3911C13.0664 27.3401 13.0759 27.2991 13.1256 27.2587L13.1986 27.1994L13.0398 27.0087L12.4755 27.3771L12.9297 28.805L12.921 28.8105L11.5282 27.9958ZM14.6731 27.3954C14.9142 27.3116 15.1161 27.265 15.252 27.4283C15.4153 27.624 15.2946 27.784 15.1101 27.9043C15.0309 27.9562 14.9235 28.011 14.8673 28.028C14.8144 28.0431 14.7889 28.0287 14.7534 27.986L14.6115 27.8152L14.3532 28.015L14.6918 28.4214C14.8974 28.3844 15.1288 28.2682 15.3244 28.1404C15.7753 27.846 15.8708 27.4929 15.5968 27.1643C15.3228 26.8355 14.9821 26.9258 14.6611 27.0236C14.3925 27.1057 14.1996 27.1581 14.0659 26.9977C13.9278 26.8317 14.0412 26.684 14.1942 26.5841C14.2596 26.5416 14.3616 26.4904 14.4123 26.4729C14.4682 26.4558 14.4907 26.4722 14.526 26.5149L14.6619 26.678L14.9224 26.4808L14.5941 26.0869C14.4023 26.1193 14.1674 26.226 13.9888 26.3425C13.589 26.6035 13.4802 26.9614 13.7352 27.2679C14.0027 27.5887 14.36 27.5027 14.6731 27.3954Z" fill="#232529"/>
</svg>
