<svg width="54" height="50" viewBox="0 0 54 50" fill="none" xmlns="http://www.w3.org/2000/svg">
<path d="M25.7223 34.4272L25.7305 34.4306C25.9996 34.5425 26.2915 34.6006 26.5873 34.6006C26.8831 34.6006 27.175 34.5425 27.4441 34.4306L27.4523 34.4272L27.4606 34.4242C27.7385 34.3229 27.991 34.1718 28.2042 33.9805L38.8359 23.9836C39.2591 23.5857 39.4918 23.0514 39.4918 22.5C39.4918 21.9486 39.2591 21.4143 38.8359 21.0164C38.4119 20.6177 37.8318 20.3898 37.2222 20.3898C36.6127 20.3898 36.0328 20.6176 35.6088 21.0162C35.6087 21.0163 35.6086 21.0163 35.6085 21.0164L29.5207 26.7658L28.846 27.4029V26.475V2.5C28.846 1.95127 28.6144 1.41964 28.1933 1.02364C27.7713 0.626861 27.194 0.4 26.5873 0.4C25.9806 0.4 25.4033 0.626861 24.9813 1.02364C24.5602 1.41964 24.3286 1.95127 24.3286 2.5V26.475V27.4029L23.6539 26.7658L17.5661 21.0164L25.7223 34.4272ZM25.7223 34.4272L25.714 34.4242M25.7223 34.4272L25.714 34.4242M25.714 34.4242C25.4361 34.3229 25.1836 34.1718 24.9703 33.9805M25.714 34.4242L24.9703 33.9805M24.9703 33.9805L14.3387 23.9836C14.129 23.7864 13.9641 23.5537 13.852 23.2994C13.74 23.0451 13.6828 22.7736 13.6828 22.5C13.6828 22.2264 13.74 21.9549 13.852 21.7006C13.9641 21.4463 14.129 21.2136 14.3387 21.0164C14.5484 20.8192 14.7988 20.6615 15.0759 20.5536C15.3531 20.4456 15.651 20.3898 15.9524 20.3898C16.2537 20.3898 16.5516 20.4456 16.8288 20.5536C17.1057 20.6614 17.3558 20.8189 17.5654 21.0158L24.9703 33.9805ZM48.9099 31.0236C49.3318 30.6269 49.9091 30.4 50.5159 30.4C51.1226 30.4 51.6999 30.6269 52.1219 31.0236C52.543 31.4196 52.7746 31.9513 52.7746 32.5V42.5C52.7746 44.3748 51.9828 46.1782 50.5644 47.5119C49.1452 48.8464 47.2154 49.6 45.1984 49.6H7.97619C5.95919 49.6 4.02937 48.8464 2.61018 47.5119C1.19183 46.1782 0.4 44.3748 0.4 42.5V32.5C0.4 31.9513 0.631597 31.4196 1.05273 31.0236C1.47471 30.6269 2.052 30.4 2.65873 30.4C3.26546 30.4 3.84275 30.6269 4.26473 31.0236C4.68586 31.4196 4.91746 31.9513 4.91746 32.5V42.5C4.91746 43.2774 5.24609 44.0175 5.82217 44.5592C6.39742 45.1001 7.17264 45.4 7.97619 45.4H45.1984C46.002 45.4 46.7772 45.1001 47.3524 44.5592C47.9285 44.0175 48.2571 43.2773 48.2571 42.5V32.5C48.2571 31.9513 48.4887 31.4196 48.9099 31.0236Z" fill="#272329" stroke="white" stroke-width="0.8"/>
</svg>
