<svg width="32" height="24" viewBox="0 0 32 24" fill="none" xmlns="http://www.w3.org/2000/svg">
<path d="M17.8012 7.1285C16.8958 6.69913 16.2082 6.12913 15.7578 5.43444C15.4342 4.93457 14.7348 4.77252 14.1957 5.07252C14.1403 5.10336 14.0879 5.13847 14.0389 5.17757C11.821 6.94569 9.96416 7.12522 9.05518 7.07835C8.73774 7.05997 8.42638 7.16493 8.19574 7.36803C7.9683 7.5703 7.84348 7.85216 7.85197 8.14429L7.88129 9.61194C7.88195 9.62099 7.88281 9.63069 7.88382 9.641V9.66397V9.6696L8.05116 11.6252C8.05358 11.6546 8.05834 11.6837 8.06531 11.7124C8.35252 12.8778 9.02586 13.9306 9.99095 14.7232V16.4937C9.99202 16.6505 9.89915 16.7949 9.74981 16.8687C9.43156 17.0305 9.31513 17.4009 9.4897 17.696C9.50568 17.723 9.52388 17.7489 9.54405 17.7733L12.2674 21.0743C12.6463 21.5334 13.3548 21.6208 13.85 21.2696C13.9292 21.2134 14 21.1477 14.0606 21.0743L16.784 17.7733C17.0047 17.5061 16.9499 17.1237 16.6617 16.9191C16.6353 16.9003 16.6074 16.8835 16.5783 16.8687C16.429 16.7949 16.3361 16.6505 16.3371 16.4937V14.7227C17.6176 13.6775 18.3713 12.1855 18.4175 10.6043V10.601L18.4726 8.17569C18.4818 7.73666 18.2216 7.33077 17.8012 7.1285ZM17.1041 10.5733C17.0668 11.8517 16.4411 13.054 15.3852 13.8766C15.1574 14.0523 15.0256 14.3126 15.0252 14.5873V16.4932C15.0261 16.8469 15.1502 17.1909 15.3791 17.4738L13.1643 20.1527L10.954 17.4738C11.1829 17.1909 11.3071 16.8469 11.3079 16.4932V14.5868C11.3074 14.3115 11.1747 14.0507 10.9459 13.8752C10.155 13.2559 9.59855 12.4182 9.358 11.4846L9.19673 9.57819L9.17045 8.30085C10.3074 8.32522 12.3777 8.04913 14.7396 6.22335H14.7401C15.3083 7.031 16.1208 7.69241 17.1576 8.1921L17.1041 10.5733Z" fill="black"/>
<path d="M21.0903 16.3383L20.5555 16.1977C21.8925 14.7592 22.4099 12.816 21.9483 10.9659L20.6055 5.65078C19.8993 2.37563 16.7719 0 13.1643 0C9.55671 0 6.42988 2.37516 5.72312 5.64984L4.37987 10.9659C3.91825 12.816 4.43558 14.7592 5.77266 16.1977L5.23779 16.3383C2.81706 17.0254 1.16406 19.0975 1.16406 21.4448V23.3906C1.16421 23.7272 1.45855 23.9999 1.82153 23.9998C2.18431 23.9996 2.47834 23.727 2.47849 23.3906V21.4448C2.47849 19.6338 3.75349 18.0348 5.621 17.5041C5.75244 17.467 5.85153 17.4422 5.91674 17.4258C5.9673 17.4136 6.00471 17.4037 6.04212 17.392L7.23926 17.0977C7.58986 17.0105 7.7978 16.6763 7.70381 16.3512C7.66721 16.2247 7.58764 16.1125 7.47687 16.0312C5.92256 14.8969 5.21468 13.0323 5.65992 11.2453L7.0057 5.91797C7.0057 5.91141 7.00873 5.90438 7.01025 5.89734C7.68915 2.74608 10.9947 0.701812 14.3934 1.3313C16.8768 1.79128 18.8187 3.59034 19.3169 5.89266C19.3185 5.90109 19.3204 5.90953 19.3224 5.91797L20.6687 11.2439C21.1146 13.0313 20.4066 14.8967 18.8518 16.0312C18.5663 16.2391 18.5166 16.6222 18.7408 16.8869C18.829 16.991 18.9514 17.0656 19.0894 17.0995L20.2865 17.3906C20.3239 17.4023 20.3639 17.4122 20.4119 17.4244C20.4776 17.4408 20.5762 17.4656 20.7076 17.5027C22.5749 18.0336 23.8497 19.6325 23.8496 21.4434V23.3906C23.8496 23.7272 24.1439 24 24.5068 24C24.8698 24 25.1641 23.7272 25.1641 23.3906V21.4448C25.1641 19.0975 23.5111 17.0254 21.0903 16.3383Z" fill="black"/>
</svg>
