<svg width="91" height="80" viewBox="0 0 91 80" fill="none" xmlns="http://www.w3.org/2000/svg">
<path d="M45.0458 7.14583L45.098 7.17775L45.1501 7.14583C51.4991 3.26243 57.6345 0.961031 63.4019 0.295814C69.0176 -0.352171 74.2486 0.6155 78.5326 3.08766C86.2422 7.53718 90.5571 16.5698 90.0569 27.2662C89.6256 36.4875 85.7974 45.9954 78.9789 54.7606C71.1535 64.8206 59.9899 73.2282 45.7942 79.7479C45.5731 79.8492 45.3358 79.9 45.0981 79.9C44.8605 79.9 44.623 79.8492 44.4021 79.7479C30.2064 73.2284 19.0428 64.8206 11.2173 54.7606C4.39889 45.9954 0.570705 36.4875 0.139189 27.266C-0.361203 16.5698 3.9539 7.53718 11.6632 3.08783C15.9472 0.6155 21.1785 -0.352171 26.794 0.295814L26.8055 0.19648L26.794 0.295814C32.5614 0.961031 38.6967 3.26243 45.0458 7.14583ZM45.0556 76.4008L45.098 76.4206L45.1403 76.4008C58.4937 70.1571 68.8213 60.9528 76.1819 51.49C82.576 43.2703 85.316 35.4379 85.7157 26.8954C85.9363 22.1795 84.7858 18.5457 82.8701 15.5424C80.9559 12.5417 78.2806 10.1749 75.4595 7.98819L75.4601 7.98746L75.4483 7.98062C71.4562 5.67655 67.0707 4.42122 62.1908 4.68952C57.3118 4.95777 51.9456 6.74869 45.9906 10.5255C45.446 10.8708 44.7499 10.8708 44.2053 10.5255C36.7247 5.78112 30.1711 5.27815 23.9583 5.27815C20.5399 5.27815 18.1236 6.68654 15.4579 8.24033C15.2234 8.37701 14.987 8.51482 14.7478 8.65289L14.7475 8.65239L14.7389 8.65871C11.7401 10.8465 9.17368 13.1244 7.35801 16.0451C5.54122 18.9676 4.48027 22.5268 4.48027 27.2707H4.48016L4.48038 27.2754C4.88031 35.823 8.68102 44.2838 15.0712 52.4984C22.4321 61.9615 31.7027 70.1574 45.0556 76.4008ZM53.4431 29.8321V29.9321H53.5431H61.8337C62.7516 29.9321 63.4953 30.6732 63.4953 31.5865V44.9005C63.4953 45.8138 62.7516 46.5551 61.8337 46.5551H53.5433H53.4433V46.6551V54.9125C53.4433 55.8258 52.6996 56.5671 51.7817 56.5671H38.4144C37.4965 56.5671 36.7528 55.8258 36.7528 54.9125V46.6553V46.5553H36.6528H28.3623C27.4443 46.5553 26.7006 45.814 26.7006 44.9007V31.5867C26.7006 30.6734 27.4443 29.9321 28.3623 29.9321H36.6526H36.7526V29.8321V21.5747C36.7526 20.6614 37.4963 19.9201 38.4143 19.9201H51.7815C52.6994 19.9201 53.4431 20.6614 53.4431 21.5747V29.8321ZM60.072 43.2459H60.172V43.1459V33.3411V33.2411H60.072H51.7817C50.8637 33.2411 50.12 32.4998 50.12 31.5865L50.1198 24.2017V24.1017H50.0198H40.1759H40.0759L40.0759 24.2017L40.0761 31.5865C40.0761 32.4998 39.3324 33.2411 38.4144 33.2411H30.1239H30.0239V33.3411V43.1459V43.2459H30.1239H38.4143C39.3322 43.2459 40.0759 43.9872 40.0759 44.9005V52.437V52.537H40.1759H50.0198H50.1198V52.437V44.9005C50.1198 43.9872 50.8636 43.2459 51.7815 43.2459H60.072Z" fill="url(#paint0_linear_773_4728)" stroke="white" stroke-width="0.2"/>
<defs>
<linearGradient id="paint0_linear_773_4728" x1="75.4119" y1="-1.15686" x2="15.0267" y2="59.4704" gradientUnits="userSpaceOnUse">
<stop stop-color="#BA00A7"/>
<stop offset="1" stop-color="#460FE3"/>
</linearGradient>
</defs>
</svg>
