<svg width="40" height="30" viewBox="0 0 40 30" fill="none" xmlns="http://www.w3.org/2000/svg">
<path fill-rule="evenodd" clip-rule="evenodd" d="M13.4733 15.1142C13.7733 14.6362 13.942 14.116 13.942 13.5817C13.942 13.174 13.8483 12.7803 13.6796 12.4148C12.1424 11.5571 11.1301 10.1933 11.1301 8.66081V6.95958C10.9426 6.49561 10.2677 4.51318 11.6175 2.60105C11.1675 2.24956 10.6052 1.61687 10.6052 0.674868C10.5864 0.196837 11.3738 -0.056239 11.8424 0.281195C12.3111 0.618629 14.3169 0.351494 15.1793 0.253076C16.2103 0.140598 17.3913 0 18.5349 0C21.8155 0 23.7276 1.1529 24.3837 3.54306V3.57118C24.4025 3.65554 24.7586 5.49736 23.5401 7.38137V8.66081C23.5401 10.1933 22.5466 11.5571 21.0094 12.4007C20.8219 12.7803 20.7469 13.174 20.7469 13.5817C20.7469 14.116 20.8969 14.6362 21.1968 15.1142C26.1459 15.2548 29.6702 17.8559 29.6702 21.3989V23.4517C29.6702 23.7469 29.3515 24 28.9391 24H5.73111C5.33743 24 5 23.7469 5 23.4517V21.3989C5 17.8559 8.54306 15.2548 13.4733 15.1142ZM21.8904 16.2531L18.0662 19.1213V22.9033H23.5589V20.5272C23.5589 19.7961 25.0211 19.7961 25.0211 20.5272V22.9033H28.208V21.3989C28.208 18.6573 25.621 16.6046 21.8904 16.2531ZM16.604 22.9033V19.1213L12.7797 16.2531C9.06796 16.6046 6.46221 18.6573 6.46221 21.3989V22.9033H9.63035V20.5272C9.63035 19.7961 11.0926 19.7961 11.0926 20.5272V22.9033H16.604ZM20.1845 15.9859C20.1658 15.9578 20.1283 15.9438 20.1095 15.9156C19.4534 15.0158 19.1722 14.0879 19.3222 13.0615C18.0475 13.3849 16.6415 13.3849 15.3667 13.0615C15.5167 14.0598 15.2355 15.0721 14.5606 15.9297C14.5419 15.9438 14.5231 15.9719 14.5044 15.9859L17.3351 18.109L20.1845 15.9859ZM14.6356 11.5712C14.6731 11.5852 14.7106 11.6134 14.7481 11.6274C16.1353 12.4007 18.5536 12.4007 19.9408 11.6274C19.9783 11.6134 20.0158 11.5852 20.0533 11.5712C21.2718 10.9244 22.0779 9.85589 22.0779 8.66081V7.45167C21.703 7.08612 20.9156 6.17223 20.7844 4.78032C18.9285 5.59578 16.5477 6.04569 14.4856 5.08963C14.167 5.70826 13.5858 6.55185 12.5923 7.14235V8.66081C12.5923 9.85589 13.3984 10.9244 14.6356 11.5712ZM21.5718 3.1775C22.0029 3.1775 22.3404 3.4587 22.2841 3.79613C22.1342 4.76626 22.3779 5.52548 22.659 6.04569C23.109 4.86468 22.959 3.86643 22.9402 3.73989C22.4341 1.88401 21.1031 1.09666 18.5349 1.09666C16.4915 1.09666 13.942 1.64499 12.3486 1.53251C12.7797 2.0949 13.1547 1.98243 13.2671 2.36204C13.3046 2.5167 13.2671 2.67135 13.1547 2.79789C12.2173 3.85237 12.1798 5.01933 12.3111 5.80668C13.5483 4.59754 13.0797 3.83831 13.867 3.64148C14.7481 3.43058 14.8981 4.52724 17.0726 4.52724C19.1535 4.52724 21.0656 3.3181 21.0844 3.30404C21.2343 3.21968 21.403 3.1775 21.5718 3.1775Z" fill="#6711BA"/>
</svg>
