<svg width="114" height="80" viewBox="0 0 114 80" fill="none" xmlns="http://www.w3.org/2000/svg">
<mask id="path-1-inside-1_773_4753" fill="white">
<path d="M111.974 19.8008C101.979 19.7653 92.2472 16.6597 84.1562 10.9233C83.8271 10.7162 83.4439 10.6063 83.0525 10.6067C82.6611 10.6071 82.2782 10.7177 81.9495 10.9254L78.8502 12.88C78.7249 12.959 78.5894 13.0261 78.463 13.1038L75.3692 6.86839C74.3447 4.81435 72.7517 3.08205 70.7709 1.86802C68.7901 0.653999 66.5008 0.00685072 64.1628 0H30.482C28.1449 0.0061874 25.8563 0.652678 23.8761 1.86608C21.8959 3.07947 20.3035 4.81117 19.2796 6.86455L13.9647 17.5758C13.3283 16.7872 12.5199 16.1475 11.5983 15.7032C10.6768 15.2589 9.66533 15.0212 8.63784 15.0076H4.97001C3.65225 15.0087 2.38879 15.5208 1.45698 16.4315C0.525172 17.3422 0.00116974 18.577 0 19.8649V22.012C0.00115895 23.2999 0.525156 24.5347 1.45696 25.4454C2.38877 26.3561 3.65224 26.8682 4.97001 26.8694H7.37012C6.41077 27.6369 5.63695 28.6022 5.10412 29.6962C4.57128 30.7903 4.2926 31.986 4.28805 33.1976V44.8905C4.29051 46.9628 4.76426 49.0088 5.67504 50.8802C6.58582 52.7517 7.91085 54.4018 9.55426 55.7113V61.8545C9.55878 63.4927 10.228 65.0621 11.415 66.2186C12.6021 67.3751 14.21 68.0242 15.8861 68.0234H21.5937C23.2701 68.0246 24.8785 67.3757 26.0659 66.2191C27.2533 65.0626 27.9228 63.4929 27.9275 61.8545V58.9031H53.5859C56.2905 65.341 61.4446 70.5028 67.9638 73.3024L82.1899 79.8113C82.4598 79.9356 82.7544 80 83.0527 80C83.351 80 83.6457 79.9356 83.9155 79.8113L98.1436 73.3024C107.925 68.8277 114 60.3758 114 51.2439V21.7904C114 21.2645 113.787 20.76 113.407 20.3872C113.028 20.0143 112.512 19.8035 111.974 19.8008ZM22.9435 8.59769C23.6326 7.216 24.7042 6.05082 26.0368 5.23444C27.3693 4.41807 28.9093 3.98321 30.482 3.97926H64.1628C65.7364 3.98363 67.2772 4.41905 68.6104 5.23609C69.9436 6.05312 71.0158 7.21906 71.7052 8.60157L74.9011 15.0424C68.4379 18.1489 61.3358 19.7762 54.1333 19.8008C53.5952 19.8035 53.08 20.0143 52.7004 20.3872C52.3208 20.76 52.1077 21.2645 52.1075 21.7904V24.9303H14.8404L22.9435 8.59769ZM4.07143 22.012C4.18822 21.0169 3.60484 19.0094 4.96997 18.9868C6.32446 19.1164 9.51206 18.5172 10.4827 19.7658L12.0638 21.4067L11.3277 22.8902H4.97001C4.73182 22.8898 4.50351 22.7971 4.33509 22.6325C4.16666 22.4679 4.07185 22.2448 4.07143 22.012ZM23.856 61.8545C23.8521 62.4377 23.6118 62.9957 23.1878 63.4062C22.7637 63.8166 22.1905 64.0461 21.5937 64.0442H15.8861C15.2895 64.046 14.7166 63.8165 14.2928 63.406C13.8691 62.9955 13.6292 62.4376 13.6258 61.8545V57.9982C15.2229 58.5895 16.9157 58.896 18.6236 58.903H23.856V61.8545ZM18.6236 54.9239C15.9044 54.9131 13.2998 53.8525 11.3773 51.9731C9.4547 50.0937 8.37001 47.5479 8.35954 44.8903V33.1976C8.36081 32.0607 8.82348 30.9707 9.64602 30.1668C10.4686 29.3629 11.5838 28.9107 12.7471 28.9095H52.1076V41.0277H35.6648C35.1315 41.0376 34.6236 41.2516 34.2501 41.6237C33.8766 41.9957 33.6673 42.4962 33.6674 43.0174C33.6674 43.5386 33.8766 44.039 34.2502 44.4111C34.6237 44.7831 35.1317 44.9971 35.6649 45.0069H52.1075V47.2044H35.6648C35.1249 47.2044 34.6071 47.414 34.2253 47.7872C33.8435 48.1603 33.629 48.6664 33.629 49.194C33.629 49.7217 33.8435 50.2278 34.2253 50.6009C34.6071 50.974 35.1249 51.1836 35.6648 51.1836H52.1075C52.1072 52.4378 52.2214 53.6895 52.4488 54.9239L18.6236 54.9239ZM109.929 51.2439C109.929 58.8137 104.752 65.8861 96.4181 69.7001L83.0528 75.8127L69.6894 69.7001C61.3557 65.888 56.179 58.8156 56.179 51.2439V23.7314C65.0019 23.404 73.5816 20.8142 81.0568 16.2219L83.0528 14.9648L85.0507 16.2219C92.5256 20.815 101.105 23.4049 109.929 23.7314V51.2439Z"/>
</mask>
<path d="M111.974 19.8008C101.979 19.7653 92.2472 16.6597 84.1562 10.9233C83.8271 10.7162 83.4439 10.6063 83.0525 10.6067C82.6611 10.6071 82.2782 10.7177 81.9495 10.9254L78.8502 12.88C78.7249 12.959 78.5894 13.0261 78.463 13.1038L75.3692 6.86839C74.3447 4.81435 72.7517 3.08205 70.7709 1.86802C68.7901 0.653999 66.5008 0.00685072 64.1628 0H30.482C28.1449 0.0061874 25.8563 0.652678 23.8761 1.86608C21.8959 3.07947 20.3035 4.81117 19.2796 6.86455L13.9647 17.5758C13.3283 16.7872 12.5199 16.1475 11.5983 15.7032C10.6768 15.2589 9.66533 15.0212 8.63784 15.0076H4.97001C3.65225 15.0087 2.38879 15.5208 1.45698 16.4315C0.525172 17.3422 0.00116974 18.577 0 19.8649V22.012C0.00115895 23.2999 0.525156 24.5347 1.45696 25.4454C2.38877 26.3561 3.65224 26.8682 4.97001 26.8694H7.37012C6.41077 27.6369 5.63695 28.6022 5.10412 29.6962C4.57128 30.7903 4.2926 31.986 4.28805 33.1976V44.8905C4.29051 46.9628 4.76426 49.0088 5.67504 50.8802C6.58582 52.7517 7.91085 54.4018 9.55426 55.7113V61.8545C9.55878 63.4927 10.228 65.0621 11.415 66.2186C12.6021 67.3751 14.21 68.0242 15.8861 68.0234H21.5937C23.2701 68.0246 24.8785 67.3757 26.0659 66.2191C27.2533 65.0626 27.9228 63.4929 27.9275 61.8545V58.9031H53.5859C56.2905 65.341 61.4446 70.5028 67.9638 73.3024L82.1899 79.8113C82.4598 79.9356 82.7544 80 83.0527 80C83.351 80 83.6457 79.9356 83.9155 79.8113L98.1436 73.3024C107.925 68.8277 114 60.3758 114 51.2439V21.7904C114 21.2645 113.787 20.76 113.407 20.3872C113.028 20.0143 112.512 19.8035 111.974 19.8008ZM22.9435 8.59769C23.6326 7.216 24.7042 6.05082 26.0368 5.23444C27.3693 4.41807 28.9093 3.98321 30.482 3.97926H64.1628C65.7364 3.98363 67.2772 4.41905 68.6104 5.23609C69.9436 6.05312 71.0158 7.21906 71.7052 8.60157L74.9011 15.0424C68.4379 18.1489 61.3358 19.7762 54.1333 19.8008C53.5952 19.8035 53.08 20.0143 52.7004 20.3872C52.3208 20.76 52.1077 21.2645 52.1075 21.7904V24.9303H14.8404L22.9435 8.59769ZM4.07143 22.012C4.18822 21.0169 3.60484 19.0094 4.96997 18.9868C6.32446 19.1164 9.51206 18.5172 10.4827 19.7658L12.0638 21.4067L11.3277 22.8902H4.97001C4.73182 22.8898 4.50351 22.7971 4.33509 22.6325C4.16666 22.4679 4.07185 22.2448 4.07143 22.012ZM23.856 61.8545C23.8521 62.4377 23.6118 62.9957 23.1878 63.4062C22.7637 63.8166 22.1905 64.0461 21.5937 64.0442H15.8861C15.2895 64.046 14.7166 63.8165 14.2928 63.406C13.8691 62.9955 13.6292 62.4376 13.6258 61.8545V57.9982C15.2229 58.5895 16.9157 58.896 18.6236 58.903H23.856V61.8545ZM18.6236 54.9239C15.9044 54.9131 13.2998 53.8525 11.3773 51.9731C9.4547 50.0937 8.37001 47.5479 8.35954 44.8903V33.1976C8.36081 32.0607 8.82348 30.9707 9.64602 30.1668C10.4686 29.3629 11.5838 28.9107 12.7471 28.9095H52.1076V41.0277H35.6648C35.1315 41.0376 34.6236 41.2516 34.2501 41.6237C33.8766 41.9957 33.6673 42.4962 33.6674 43.0174C33.6674 43.5386 33.8766 44.039 34.2502 44.4111C34.6237 44.7831 35.1317 44.9971 35.6649 45.0069H52.1075V47.2044H35.6648C35.1249 47.2044 34.6071 47.414 34.2253 47.7872C33.8435 48.1603 33.629 48.6664 33.629 49.194C33.629 49.7217 33.8435 50.2278 34.2253 50.6009C34.6071 50.974 35.1249 51.1836 35.6648 51.1836H52.1075C52.1072 52.4378 52.2214 53.6895 52.4488 54.9239L18.6236 54.9239ZM109.929 51.2439C109.929 58.8137 104.752 65.8861 96.4181 69.7001L83.0528 75.8127L69.6894 69.7001C61.3557 65.888 56.179 58.8156 56.179 51.2439V23.7314C65.0019 23.404 73.5816 20.8142 81.0568 16.2219L83.0528 14.9648L85.0507 16.2219C92.5256 20.815 101.105 23.4049 109.929 23.7314V51.2439Z" fill="url(#paint0_linear_773_4753)" stroke="white" stroke-width="0.4" mask="url(#path-1-inside-1_773_4753)"/>
<path d="M76.645 49.7836L76.6974 49.891L76.7939 49.8205L96.374 35.5221C96.3742 35.5219 96.3745 35.5217 96.3747 35.5215C96.7739 35.2417 97.3062 35.089 97.8578 35.1006C98.4098 35.1123 98.9298 35.2874 99.3069 35.5833C99.6834 35.8787 99.884 36.2673 99.8799 36.663C99.8757 37.0585 99.667 37.4447 99.2845 37.7357C99.2842 37.7359 99.284 37.7361 99.2838 37.7363L77.2997 53.79C77.2997 53.79 77.2997 53.79 77.2997 53.79C77.0514 53.9712 76.7453 54.1042 76.4085 54.1751C76.0718 54.246 75.7167 54.2523 75.3758 54.1933C75.0348 54.1344 74.7205 54.0123 74.4608 53.8397C74.2011 53.6671 74.0055 53.4504 73.8886 53.2112L69.3909 43.9861C69.3907 43.9858 69.3905 43.9854 69.3904 43.9851C69.2182 43.6084 69.2469 43.1966 69.4735 42.8338C69.7016 42.4683 70.1151 42.1782 70.632 42.0336C71.1485 41.8892 71.7198 41.9039 72.2216 42.0742C72.7233 42.2445 73.1084 42.554 73.3028 42.9283L76.645 49.7836Z" fill="url(#paint1_linear_773_4753)" stroke="white" stroke-width="0.2"/>
<path d="M26.9661 34.2694L26.9665 34.2695C28.6966 34.7425 30.2114 35.7159 31.285 37.0424C32.3584 38.3688 32.9332 39.9769 32.9249 41.6258V41.6264C32.925 41.8733 32.8721 42.118 32.7688 42.3467C32.6655 42.5754 32.5138 42.7838 32.3218 42.9598C32.1298 43.1357 31.9013 43.2757 31.6493 43.3712C31.3973 43.4668 31.127 43.516 30.8538 43.5159H30.8538H18.156C16.8645 43.5144 15.628 43.0435 14.7172 42.2088C13.8068 41.3744 13.2964 40.2452 13.2948 39.0693L13.2948 39.0671C13.2918 38.9414 13.2883 38.8139 13.2848 38.685C13.2578 37.703 13.2286 36.6393 13.4225 35.6542C13.6407 34.5447 14.1399 33.547 15.2388 32.8911L15.239 32.8913L15.2443 32.8876C15.8482 32.4722 16.5516 32.1933 17.2968 32.0743C18.0421 31.9554 18.8074 31.9998 19.5301 32.2039L19.5306 32.204L26.9661 34.2694ZM18.1558 39.7367H18.1559L28.0784 39.7366L28.2653 39.7366L28.1616 39.5812C27.6155 38.762 26.7596 38.1587 25.7602 37.8849C25.7601 37.8849 25.76 37.8849 25.7599 37.8848L18.3248 35.8196C18.3248 35.8196 18.3248 35.8196 18.3247 35.8196C18.2594 35.8013 18.1916 35.7922 18.1236 35.7926L18.1236 35.7918L18.111 35.7934C17.9239 35.8179 17.7655 35.8587 17.6481 35.9596C17.5277 36.0631 17.4669 36.2148 17.4378 36.4207L17.4368 36.4205V36.4347V39.0693V39.0695C17.437 39.2493 17.5151 39.4198 17.6508 39.544C17.7861 39.6681 17.9678 39.7365 18.1558 39.7367Z" fill="url(#paint2_linear_773_4753)" stroke="white" stroke-width="0.2"/>
<defs>
<linearGradient id="paint0_linear_773_4753" x1="95.3141" y1="-1.15686" x2="36.6021" y2="73.3475" gradientUnits="userSpaceOnUse">
<stop stop-color="#BA00A7"/>
<stop offset="1" stop-color="#460FE3"/>
</linearGradient>
<linearGradient id="paint1_linear_773_4753" x1="94.9314" y1="34.7204" x2="81.1874" y2="54.2191" gradientUnits="userSpaceOnUse">
<stop stop-color="#BA00A7"/>
<stop offset="1" stop-color="#460FE3"/>
</linearGradient>
<linearGradient id="paint2_linear_773_4753" x1="29.7697" y1="31.7399" x2="21.6354" y2="44.0284" gradientUnits="userSpaceOnUse">
<stop stop-color="#BA00A7"/>
<stop offset="1" stop-color="#460FE3"/>
</linearGradient>
</defs>
</svg>
