<svg width="114" height="102" viewBox="0 0 114 102" fill="none" xmlns="http://www.w3.org/2000/svg">
<g clip-path="url(#clip0_773_4733)">
<path d="M25.0085 9.94922H20.3909C19.8202 9.94922 19.3533 10.367 19.3533 10.8777V17.7635C19.3533 18.2742 19.8202 18.692 20.3909 18.692H24.9912C25.5792 18.692 26.0289 18.2742 26.0462 17.7635V10.8777C26.0462 10.367 25.5792 9.94922 25.0085 9.94922ZM23.9709 16.8351H21.4286V11.8061H23.9709V16.8351Z" fill="url(#paint0_linear_773_4733)"/>
<path d="M30.3526 18.692H34.9702C35.5409 18.692 36.0079 18.2742 36.0079 17.7635V10.8777C36.0079 10.367 35.5409 9.94922 34.9702 9.94922H30.3526C29.7819 9.94922 29.3149 10.367 29.3149 10.8777V17.7635C29.3149 18.2742 29.7819 18.692 30.3526 18.692ZM31.3903 11.8061H33.9325V16.8351H31.3903V11.8061Z" fill="url(#paint1_linear_773_4733)"/>
<path d="M40.4354 18.692H45.053C45.641 18.692 46.0906 18.2742 46.0906 17.7635V10.8777C46.0906 10.367 45.6237 9.94922 45.053 9.94922H40.4354C39.8647 9.94922 39.3977 10.367 39.3977 10.8777V17.7635C39.3977 18.2742 39.8647 18.692 40.4354 18.692ZM41.4903 11.8061H44.0326V16.8351H41.4903V11.8061Z" fill="url(#paint2_linear_773_4733)"/>
<path d="M50.1719 18.692H54.7895C55.3429 18.692 55.8099 18.2742 55.8272 17.7635V10.8777C55.8272 10.367 55.3602 9.94922 54.7895 9.94922H50.1719C49.6012 9.94922 49.1343 10.367 49.1343 10.8777V17.7635C49.1343 18.2742 49.6012 18.692 50.1719 18.692ZM51.1923 11.8061H53.7346V16.8351H51.1923V11.8061Z" fill="url(#paint3_linear_773_4733)"/>
<path d="M25.0085 33.083H20.3909C19.8202 33.083 19.3533 33.5008 19.3533 34.0114V40.8973C19.3533 41.408 19.8202 41.8258 20.3909 41.8258H24.9912C25.5792 41.8258 26.0289 41.408 26.0462 40.8973V34.0114C26.0462 33.5008 25.5792 33.083 25.0085 33.083ZM23.9709 39.9689H21.4286V34.9399H23.9709V39.9689Z" fill="url(#paint4_linear_773_4733)"/>
<path d="M30.3526 41.8258H34.9702C35.5409 41.8258 36.0079 41.408 36.0079 40.8973V34.0114C36.0079 33.5008 35.5409 33.083 34.9702 33.083H30.3526C29.7819 33.083 29.3149 33.5008 29.3149 34.0114V40.8973C29.3149 41.408 29.7819 41.8258 30.3526 41.8258ZM31.3903 34.9399H33.9325V39.9689H31.3903V34.9399Z" fill="url(#paint5_linear_773_4733)"/>
<path d="M40.4354 41.8258H45.053C45.641 41.8258 46.0906 41.408 46.0906 40.8973V34.0114C46.0906 33.5008 45.6237 33.083 45.053 33.083H40.4354C39.8647 33.083 39.3977 33.5008 39.3977 34.0114V40.8973C39.3977 41.408 39.8647 41.8258 40.4354 41.8258ZM41.4903 34.9399H44.0326V39.9689H41.4903V34.9399Z" fill="url(#paint6_linear_773_4733)"/>
<path d="M25.0085 21.2451H20.3909C19.8202 21.2451 19.3533 21.6629 19.3533 22.1736V29.0594C19.3533 29.5701 19.8202 29.9879 20.3909 29.9879H24.9912C25.5792 29.9879 26.0289 29.5701 26.0462 29.0594V22.1736C26.0462 21.6629 25.5792 21.2451 25.0085 21.2451ZM23.9709 28.131H21.4286V23.102H23.9709V28.131Z" fill="url(#paint7_linear_773_4733)"/>
<path d="M30.3526 29.9879H34.9702C35.5409 29.9879 36.0079 29.5701 36.0079 29.0594V22.1736C36.0079 21.6629 35.5409 21.2451 34.9702 21.2451H30.3526C29.7819 21.2451 29.3149 21.6629 29.3149 22.1736V29.0594C29.3149 29.5701 29.7819 29.9879 30.3526 29.9879ZM31.3903 23.102H33.9325V28.131H31.3903V23.102Z" fill="url(#paint8_linear_773_4733)"/>
<path d="M40.4354 29.9879H45.053C45.641 29.9879 46.0906 29.5701 46.0906 29.0594V22.1736C46.0906 21.6629 45.6237 21.2451 45.053 21.2451H40.4354C39.8647 21.2451 39.3977 21.6629 39.3977 22.1736V29.0594C39.3977 29.5701 39.8647 29.9879 40.4354 29.9879ZM41.4903 23.102H44.0326V28.131H41.4903V23.102Z" fill="url(#paint9_linear_773_4733)"/>
<path d="M50.1719 29.9879H54.7895C55.3429 29.9879 55.8099 29.5701 55.8272 29.0594V22.1736C55.8272 21.6629 55.3602 21.2451 54.7895 21.2451H50.1719C49.6012 21.2451 49.1343 21.6629 49.1343 22.1736V29.0594C49.1343 29.5701 49.6012 29.9879 50.1719 29.9879ZM51.1923 23.102H53.7346V28.131H51.1923V23.102Z" fill="url(#paint10_linear_773_4733)"/>
<path d="M98.9072 30.793L93.3211 27.2186V18.8008H85.3311V22.0967L77.393 17.0058L61.4303 26.7853V5.69439H62.0875C62.6582 5.69439 63.1252 5.2766 63.1252 4.76596V0.928433C63.1252 0.417795 62.6582 0 62.0875 0H13.0753C12.5046 0 12.0377 0.417795 12.0377 0.928433V4.76596C12.0377 5.2766 12.5046 5.69439 13.0753 5.69439H13.7498V53.8491H11V80H28.3116H55.6886C55.8269 80 55.9653 79.9691 56.0864 79.9226L94.8949 63.706C98.4921 62.1741 99.2012 59.1721 98.3364 56.8975C97.8868 55.7215 96.9875 54.6538 95.7769 53.9575V34.7853L95.8461 34.8317C96.2784 35.1257 96.8145 35.2805 97.368 35.2805L97.8522 35.2495C98.2154 35.1876 98.544 35.0638 98.838 34.8781C99.132 34.6925 99.3914 34.4604 99.5989 34.1973C100.412 33.0832 100.1 31.5822 98.9072 30.793ZM87.4064 20.6576H91.2458V25.8878L87.4064 23.4275V20.6576ZM14.113 1.85687L37.5814 3.83752L61.0498 1.85687V3.83752H14.113V1.85687ZM16.4066 6.72269H58.6676V28.2353L54.9449 30.7621C54.0802 31.3037 53.6651 32.2012 53.7689 33.0832H50.1717C49.601 33.0832 49.134 33.501 49.134 34.0116V40.8975C49.134 41.4081 49.601 41.8259 50.1717 41.8259H54.7893C55.3427 41.8259 55.8096 41.4081 55.8269 40.8975V35.2186C56.0172 35.265 56.2247 35.2805 56.4322 35.2805C56.9684 35.2805 57.4872 35.1412 57.9196 34.8627L58.6676 34.0116V52.1315L49.3589 52.8124C48.252 52.5803 41.8358 51.234 38.3942 51.3114C33.7594 51.4043 29.5222 53.0445 27.7063 53.8491H16.4066V6.72269ZM53.7343 34.94V39.9691H51.1921V34.94H53.7343ZM14.6603 55.6441H25.6137V78.1431H13.0753L14.6603 55.6441ZM92.0586 61.5242L74.3845 68.5714L54.7893 76.6387L28.3116 78.1431V55.6441C29.4012 55.1489 32.0472 54.0348 35.2294 53.4778C36.267 53.2921 37.3393 53.1838 38.4461 53.1528C41.8531 53.0754 48.9438 54.6228 49.013 54.6383C49.1167 54.6538 49.2205 54.6692 49.3243 54.6538L65.9614 53.7253H65.996C67.345 53.6016 69.4895 54.3752 69.8699 56.4487C70.0602 57.5319 69.8354 58.5996 69.3857 59.2805C69.3338 59.3733 69.2646 59.4662 69.1955 59.5435C68.6248 60.2089 67.7254 60.5957 66.5494 60.7041L63.7996 60.9362L56.6571 61.5242C55.7232 61.5861 54.893 62.0348 54.3742 62.7311L54.1667 63.0097C53.0944 64.4797 49.8258 68.9671 44.5164 69.5242C43.9457 69.5551 43.5134 69.9884 43.5307 70.499C43.548 71.0097 44.0495 71.3965 44.6202 71.381L44.7413 71.3656C51.0191 70.7157 54.6855 65.6712 55.8961 64.0155L56.0864 63.7524C56.2593 63.5358 56.5187 63.3965 56.8127 63.3656L66.7224 62.5764C68.3826 62.4217 69.6624 61.911 70.6482 60.8743C75.9749 59.3269 87.1989 56.1083 92.0586 55.1335C94.1166 54.7157 95.7942 56.0464 96.3649 57.501C96.9356 58.9555 94.6527 60.4255 92.0586 61.5242ZM83.7919 55.2418C79.918 56.2785 75.6636 57.4855 72.4122 58.4139V37.4623H83.7919V55.2418ZM91.6089 53.323C90.1389 53.617 88.1155 54.1122 85.8672 54.6847V35.6054H70.3369V53.3849C69.0917 52.2863 67.3623 51.7447 65.8058 51.8839L61.4303 52.1315V32.7118L77.3238 22.9787L93.7016 33.4545V53.2611C93.0444 53.1683 92.3526 53.1838 91.6089 53.323ZM97.8695 33.176C97.7657 33.2998 97.6274 33.3772 97.4717 33.4236C97.3161 33.4545 97.1777 33.4081 97.0567 33.3308L94.7392 31.8453L77.3584 20.7041L60.2716 31.1644L56.7435 33.3308C56.7262 33.3462 56.709 33.3617 56.6744 33.3617C56.3977 33.4855 56.0691 33.3927 55.9307 33.1605C55.7232 32.882 57.5751 32.8201 56.1036 32.3095L61.4303 30.4551L77.3584 20.7041L93.6771 31.1644L97.6965 32.3095C97.8868 32.4333 97.9906 32.6344 97.9906 32.8201C97.9733 32.9439 97.9387 33.0677 97.8695 33.176Z" fill="url(#paint11_linear_773_4733)"/>
<path d="M63.9556 59.6371C64.5263 59.6371 64.9933 59.2193 64.9933 58.7087C64.9933 58.492 64.9068 58.2909 64.7511 58.1207C64.2842 57.5791 64.2323 56.8209 64.6301 56.2329C64.9414 55.7996 64.803 55.2271 64.3188 54.9485C63.8345 54.67 63.1946 54.7938 62.8833 55.2271C62.0013 56.4959 62.1051 58.1362 63.1601 59.2967C63.3503 59.5133 63.6443 59.6371 63.9556 59.6371Z" fill="url(#paint12_linear_773_4733)"/>
<path d="M21.0832 67.6676C19.3537 67.5903 17.901 68.7817 17.8145 70.3137C17.7281 71.8456 19.0597 73.1609 20.7719 73.2382H20.9275C22.5878 73.2382 23.954 72.0777 24.0405 70.5922C24.127 69.0448 22.7953 67.745 21.0832 67.6676ZM20.8929 71.3659C20.3222 71.3504 19.8726 70.9171 19.8899 70.4065C19.9071 69.9113 20.3568 69.509 20.9275 69.509H20.9794C21.5501 69.54 21.9825 69.9578 21.9652 70.4684C21.9479 70.979 21.4636 71.3814 20.8929 71.3659Z" fill="url(#paint13_linear_773_4733)"/>
</g>
<defs>
<linearGradient id="paint0_linear_773_4733" x1="-31.371" y1="47.0216" x2="66.1578" y2="-26.6629" gradientUnits="userSpaceOnUse">
<stop offset="0.29" stop-color="#7516DE"/>
<stop offset="0.37" stop-color="#7C12E5"/>
<stop offset="0.41" stop-color="#8315E5"/>
<stop offset="0.59" stop-color="#A223E5"/>
<stop offset="0.69" stop-color="#AD28E5"/>
<stop offset="1" stop-color="#BC44E5"/>
</linearGradient>
<linearGradient id="paint1_linear_773_4733" x1="-28.2451" y1="51.1588" x2="69.2837" y2="-22.5259" gradientUnits="userSpaceOnUse">
<stop offset="0.03" stop-color="#3422D2"/>
<stop offset="0.17" stop-color="#6021CA"/>
<stop offset="0.29" stop-color="#7516DE"/>
<stop offset="0.37" stop-color="#7C12E5"/>
<stop offset="0.41" stop-color="#8315E5"/>
<stop offset="0.59" stop-color="#A223E5"/>
<stop offset="0.69" stop-color="#AD28E5"/>
<stop offset="1" stop-color="#860D81"/>
</linearGradient>
<linearGradient id="paint2_linear_773_4733" x1="-25.0815" y1="55.3459" x2="72.4474" y2="-18.3386" gradientUnits="userSpaceOnUse">
<stop offset="0.17" stop-color="#6021CA"/>
<stop offset="0.29" stop-color="#7516DE"/>
<stop offset="0.37" stop-color="#7C12E5"/>
<stop offset="0.41" stop-color="#8315E5"/>
<stop offset="0.59" stop-color="#A223E5"/>
<stop offset="0.69" stop-color="#AD28E5"/>
<stop offset="1" stop-color="#A711BF"/>
</linearGradient>
<linearGradient id="paint3_linear_773_4733" x1="-22.0309" y1="59.3838" x2="75.498" y2="-14.3007" gradientUnits="userSpaceOnUse">
<stop offset="0.03" stop-color="#3F33AA"/>
<stop offset="0.17" stop-color="#6021CA"/>
<stop offset="0.29" stop-color="#7516DE"/>
<stop offset="0.37" stop-color="#7C12E5"/>
<stop offset="0.41" stop-color="#8315E5"/>
<stop offset="0.59" stop-color="#A223E5"/>
<stop offset="0.69" stop-color="#AD28E5"/>
<stop offset="1" stop-color="#A30C9D"/>
</linearGradient>
<linearGradient id="paint4_linear_773_4733" x1="-19.375" y1="62.8998" x2="78.1539" y2="-10.7847" gradientUnits="userSpaceOnUse">
<stop offset="0.17" stop-color="#6021CA"/>
<stop offset="0.29" stop-color="#7516DE"/>
<stop offset="0.37" stop-color="#7C12E5"/>
<stop offset="0.41" stop-color="#8315E5"/>
<stop offset="0.59" stop-color="#A223E5"/>
<stop offset="0.69" stop-color="#AD28E5"/>
<stop offset="1" stop-color="#BC44E5"/>
</linearGradient>
<linearGradient id="paint5_linear_773_4733" x1="-16.2493" y1="67.037" x2="81.2798" y2="-6.6475" gradientUnits="userSpaceOnUse">
<stop offset="0.17" stop-color="#6021CA"/>
<stop offset="0.29" stop-color="#7516DE"/>
<stop offset="0.37" stop-color="#7C12E5"/>
<stop offset="0.41" stop-color="#8315E5"/>
<stop offset="0.59" stop-color="#A223E5"/>
<stop offset="0.69" stop-color="#AD28E5"/>
<stop offset="1" stop-color="#87087A"/>
</linearGradient>
<linearGradient id="paint6_linear_773_4733" x1="-13.0854" y1="71.2241" x2="84.4434" y2="-2.46039" gradientUnits="userSpaceOnUse">
<stop offset="0.03" stop-color="#3F33AA"/>
<stop offset="0.17" stop-color="#6021CA"/>
<stop offset="0.29" stop-color="#7516DE"/>
<stop offset="0.37" stop-color="#7C12E5"/>
<stop offset="0.41" stop-color="#8315E5"/>
<stop offset="0.59" stop-color="#A223E5"/>
<stop offset="0.69" stop-color="#AD28E5"/>
<stop offset="1" stop-color="#D116BF"/>
</linearGradient>
<linearGradient id="paint7_linear_773_4733" x1="-25.5134" y1="54.7746" x2="72.0154" y2="-18.9099" gradientUnits="userSpaceOnUse">
<stop offset="0.03" stop-color="#3F33AA"/>
<stop offset="0.17" stop-color="#6021CA"/>
<stop offset="0.29" stop-color="#7516DE"/>
<stop offset="0.37" stop-color="#7C12E5"/>
<stop offset="0.41" stop-color="#8315E5"/>
<stop offset="0.59" stop-color="#A223E5"/>
<stop offset="0.69" stop-color="#AD28E5"/>
<stop offset="1" stop-color="#BC44E5"/>
</linearGradient>
<linearGradient id="paint8_linear_773_4733" x1="-22.3875" y1="58.9118" x2="75.1413" y2="-14.7727" gradientUnits="userSpaceOnUse">
<stop offset="0.03" stop-color="#3F33AA"/>
<stop offset="0.17" stop-color="#6021CA"/>
<stop offset="0.29" stop-color="#7516DE"/>
<stop offset="0.37" stop-color="#7C12E5"/>
<stop offset="0.41" stop-color="#8315E5"/>
<stop offset="0.59" stop-color="#A223E5"/>
<stop offset="0.69" stop-color="#AD28E5"/>
<stop offset="1" stop-color="#BC44E5"/>
</linearGradient>
<linearGradient id="paint9_linear_773_4733" x1="-19.2239" y1="63.099" x2="78.305" y2="-10.5854" gradientUnits="userSpaceOnUse">
<stop offset="0.17" stop-color="#6021CA"/>
<stop offset="0.29" stop-color="#7516DE"/>
<stop offset="0.37" stop-color="#7C12E5"/>
<stop offset="0.41" stop-color="#8315E5"/>
<stop offset="0.59" stop-color="#A223E5"/>
<stop offset="0.69" stop-color="#AD28E5"/>
<stop offset="1" stop-color="#BC44E5"/>
</linearGradient>
<linearGradient id="paint10_linear_773_4733" x1="-16.1733" y1="67.137" x2="81.3555" y2="-6.54757" gradientUnits="userSpaceOnUse">
<stop stop-color="#992BDD"/>
</linearGradient>
<linearGradient id="paint11_linear_773_4733" x1="-12.4899" y1="72.0135" x2="85.0392" y2="-1.67105" gradientUnits="userSpaceOnUse">
<stop offset="0.03" stop-color="#3F33AA"/>
<stop offset="0.17" stop-color="#6021CA"/>
<stop offset="0.29" stop-color="#7516DE"/>
<stop offset="0.37" stop-color="#7C12E5"/>
<stop offset="0.41" stop-color="#8315E5"/>
<stop offset="0.59" stop-color="#A223E5"/>
<stop offset="0.69" stop-color="#AD28E5"/>
<stop offset="1" stop-color="#F42EA5"/>
</linearGradient>
<linearGradient id="paint12_linear_773_4733" x1="3.78263" y1="93.552" x2="101.312" y2="19.8674" gradientUnits="userSpaceOnUse">
<stop offset="0.17" stop-color="#6021CA"/>
<stop offset="0.29" stop-color="#7516DE"/>
<stop offset="0.37" stop-color="#7C12E5"/>
<stop offset="0.41" stop-color="#8315E5"/>
<stop offset="0.59" stop-color="#A223E5"/>
<stop offset="0.69" stop-color="#AD28E5"/>
<stop offset="1" stop-color="#BC44E5"/>
</linearGradient>
<linearGradient id="paint13_linear_773_4733" x1="-2.81866" y1="84.8136" x2="94.7102" y2="11.1291" gradientUnits="userSpaceOnUse">
<stop stop-color="#3D19A0"/>
<stop offset="0.03" stop-color="#2919BE"/>
<stop offset="0.17" stop-color="#4E14B0"/>
<stop offset="0.29" stop-color="#3216DE"/>
<stop offset="0.37" stop-color="#7C12E5"/>
<stop offset="0.41" stop-color="#8315E5"/>
<stop offset="0.59" stop-color="#A223E5"/>
<stop offset="0.69" stop-color="#9D3CC7"/>
<stop offset="1" stop-color="#B5147E"/>
</linearGradient>
<clipPath id="clip0_773_4733">
<rect width="114" height="102" fill="white"/>
</clipPath>
</defs>
</svg>
