<svg width="46" height="45" viewBox="0 0 46 45" fill="none" xmlns="http://www.w3.org/2000/svg">
<path d="M18.2447 3.63524C19.7415 -0.971309 26.2585 -0.971299 27.7553 3.63525L29.7354 9.72949C30.4048 11.7896 32.3246 13.1844 34.4907 13.1844H40.8986C45.7422 13.1844 47.7561 19.3825 43.8375 22.2295L38.6534 25.9959C36.901 27.2692 36.1677 29.526 36.8371 31.5861L38.8172 37.6804C40.314 42.2869 35.0416 46.1175 31.123 43.2705L25.9389 39.5041C24.1865 38.2308 21.8135 38.2308 20.0611 39.5041L14.877 43.2705C10.9584 46.1175 5.68604 42.2869 7.1828 37.6803L9.16294 31.5861C9.83231 29.526 9.09902 27.2692 7.34658 25.9959L2.1625 22.2295C-1.75606 19.3825 0.257821 13.1844 5.10144 13.1844H11.5093C13.6754 13.1844 15.5952 11.7896 16.2646 9.72949L18.2447 3.63524Z" fill="#FFEE59"/>
</svg>
