<svg width="44" height="52" viewBox="0 0 44 52" fill="none" xmlns="http://www.w3.org/2000/svg">
<g id="Group 143">
<g id="Group 144">
<g id="Group">
<g id="Group_2">
<g id="Group_3">
<path id="Vector" d="M36.2918 0.5L36.3037 0.500561C39.8665 0.669682 42.8328 3.49339 42.8328 7C42.8328 10.5559 39.8656 13.3947 36.2254 13.3947C34.7254 13.3947 33.3292 12.8793 32.2089 12.0668L28.008 15.7115C28.6704 16.707 29.0912 17.882 29.0912 19.1579C29.0912 22.3898 26.6049 25.0193 23.4201 25.4517V28.5993C26.221 29.3178 28.2733 31.8356 28.2733 34.7368C28.2733 38.2927 25.3061 41.1316 21.6659 41.1316C19.9353 41.1316 18.3986 40.5057 17.2018 39.4345L13.0462 42.3638C13.4517 43.1803 13.7138 44.1173 13.7138 45.1053C13.7138 48.6611 10.7466 51.5 7.10645 51.5C3.4663 51.5 0.4991 48.6611 0.4991 45.1053C0.4991 41.5494 3.4663 38.7105 7.10645 38.7105C8.84245 38.7105 10.4244 39.3845 11.6251 40.4602L15.7753 37.5347C15.3335 36.6674 15.1131 35.7211 15.1131 34.7368C15.1131 31.4542 17.702 28.7193 21.0023 28.3753V25.3059C18.0969 24.6405 15.8765 22.1243 15.8765 19.1053C15.8765 15.5494 18.8437 12.7105 22.4839 12.7105C23.9208 12.7105 25.2577 13.1739 26.3253 13.8902L30.5983 10.1784C29.9928 9.21934 29.6726 8.09665 29.6726 6.89474C29.6726 3.33888 32.6398 0.5 36.2799 0.5H36.2918ZM7.21551 41.1842C4.90805 41.1842 3.02594 42.9806 3.02594 45.2105C3.02594 47.3952 4.86121 49.2368 7.21551 49.2368C9.52112 49.2368 11.402 47.4433 11.4051 45.2159C11.3537 42.9704 9.51112 41.1842 7.21551 41.1842ZM17.5309 34.7895C17.5309 36.9742 19.3662 38.8158 21.7205 38.8158C24.0279 38.8158 25.91 37.0194 25.91 34.7895C25.91 32.6048 24.0748 30.7632 21.7205 30.7632C19.4169 30.7632 17.5309 32.6085 17.5309 34.7895ZM18.3488 19.1579C18.3488 21.3426 20.1841 23.1842 22.5384 23.1842C24.8459 23.1842 26.728 21.3878 26.728 19.1579C26.728 16.9748 24.8954 15.1342 22.5435 15.1316C20.1744 15.1817 18.3488 16.9835 18.3488 19.1579ZM32.0904 7C32.0904 9.18472 33.9256 11.0263 36.2799 11.0263C38.5874 11.0263 40.4695 9.22992 40.4695 7C40.4695 4.81686 38.6369 2.97635 36.285 2.97369C33.9159 3.02378 32.0904 4.8256 32.0904 7Z" fill="#272329" stroke="#272329"/>
</g>
</g>
</g>
</g>
</g>
</svg>
