<svg width="88" height="82" viewBox="0 0 88 82" fill="none" xmlns="http://www.w3.org/2000/svg">
<path d="M43.0329 33.7656C43.1662 33.9057 43.3244 34.0169 43.4985 34.0928C43.6726 34.1687 43.8591 34.2077 44.0476 34.2077C44.236 34.2077 44.4226 34.1687 44.5967 34.0928C44.7708 34.0169 44.929 33.9057 45.0623 33.7656L47.3379 31.3718C48.1169 30.5567 48.7344 29.5873 49.1549 28.5195C49.5753 27.4517 49.7903 26.3068 49.7873 25.151C49.7873 23.5497 49.1826 22.014 48.1062 20.8817C47.0298 19.7494 45.5699 19.1133 44.0476 19.1133C42.5253 19.1133 41.0654 19.7494 39.989 20.8817C38.9126 22.014 38.3079 23.5497 38.3079 25.151C38.3049 26.3068 38.5198 27.4517 38.9403 28.5196C39.3607 29.5874 39.9783 30.5569 40.7573 31.372L43.0329 33.7656ZM44.0476 22.1321C44.8084 22.1331 45.5379 22.4515 46.0759 23.0174C46.6139 23.5833 46.9165 24.3506 46.9174 25.151C46.9194 25.9102 46.7782 26.6622 46.502 27.3636C46.2258 28.065 45.8201 28.7018 45.3083 29.2371L44.0476 30.5637L42.7868 29.2371C42.2751 28.7018 41.8694 28.065 41.5932 27.3636C41.317 26.6622 41.1758 25.9102 41.1778 25.151C41.1787 24.3506 41.4813 23.5833 42.0193 23.0174C42.5573 22.4515 43.2867 22.1331 44.0476 22.1321ZM70.085 57.4854C68.2063 61.7169 65.4244 65.435 61.9559 68.3501C58.4875 71.2653 54.4261 73.2988 50.0881 74.2923L49.4868 71.3398C53.3909 70.4454 57.0459 68.6149 60.1673 65.991C63.2886 63.3671 65.792 60.0206 67.4824 56.2122L70.085 57.4854ZM68.5621 36.1931C67.8853 34.055 66.9574 32.014 65.7999 30.1176L68.2149 28.4871C69.5018 30.5954 70.5333 32.8645 71.2855 35.2418L68.5621 36.1931ZM18.3605 41.9118L15.5061 41.5979C16.0629 36.0006 18.102 30.6802 21.3913 26.2418L23.6557 28.0965C20.6962 32.0895 18.8616 36.8761 18.3605 41.9118ZM84.0161 40.3697C85.7672 39.4673 87.0952 38.2675 87.0952 36.5926C87.0952 33.8446 83.5295 31.8567 75.5604 30.1774C72.9128 23.8901 68.6312 18.517 63.2085 14.6766L64.5569 13.2582C65.3359 12.4431 65.9534 11.4737 66.3739 10.406C66.7943 9.33828 67.0093 8.19345 67.0063 7.03775C67.0063 5.43644 66.4016 3.90072 65.3252 2.76842C64.2488 1.63612 62.7889 1 61.2667 1C59.7444 1 58.2845 1.63612 57.2081 2.76842C56.1317 3.90072 55.527 5.43644 55.527 7.03775C55.5251 8.39772 55.8241 9.73948 56.4005 10.9568C48.3564 7.70849 39.4477 7.74558 31.4284 11.0608C30.5638 10.4581 29.56 10.1133 28.524 10.0631C27.4879 10.0129 26.4583 10.2591 25.5446 10.7755C24.631 11.292 23.8676 12.0593 23.3357 12.9959C22.8037 13.9325 22.5231 15.0034 22.5238 16.0944C22.5238 16.2333 22.5274 16.3716 22.5335 16.5095C18.6827 19.751 15.5344 23.8202 13.2994 28.445C10.8576 33.5037 9.59292 39.1002 9.60948 44.7737C9.60948 45.4152 9.62598 46.0264 9.65629 46.6209C6.53687 47.2774 3.6715 48.8892 1.42021 51.2535C1.26587 51.4159 1.14879 51.6132 1.07786 51.8303C1.00694 52.0475 0.984042 52.2788 1.01092 52.5067C1.0378 52.7345 1.11374 52.9529 1.23297 53.1453C1.35219 53.3376 1.51156 53.4988 1.69894 53.6166C4.15016 55.1574 6.78521 56.3486 9.53487 57.1588C10.3303 57.3853 11.1187 57.5802 11.8903 57.7404C14.6184 65.2268 19.6304 71.5496 26.141 75.7183C32.6516 79.8869 40.2929 81.6658 47.8677 80.7763C55.4424 79.8867 62.5226 76.3789 67.999 70.8026C73.4753 65.2262 77.0384 57.8963 78.1298 49.9613C84.3179 48.3979 87.0949 46.5875 87.0949 44.1398C87.0952 42.6664 86.1204 41.4503 84.0161 40.3697ZM84.2012 36.5944C84.0559 36.8209 83.2979 37.6935 79.8577 38.7929C79.2837 38.6218 78.6504 38.4516 77.9239 38.2731C77.6507 36.6696 77.2702 35.0884 76.7853 33.5412C82.8637 35.0012 84.0164 36.3088 84.2012 36.5944ZM59.1188 49.8256L58.3238 47.3162C58.237 47.0446 58.0782 46.8048 57.8661 46.625L58.5911 45.3539C65.2071 44.7754 70.1018 43.9859 74.6518 43.0168C74.6816 43.5923 74.3155 41 74.9881 45.3698C74.6518 42.3445 74.7226 46.8272 74.6518 47.7227C70.2968 48.6767 65.5329 49.2405 59.1188 49.8256ZM54.7144 46.2832H48.5253L54.5519 41.7548H57.2973L54.7144 46.2832ZM61.2667 4.01888C62.0275 4.01983 62.7569 4.33819 63.2949 4.90413C63.8329 5.47008 64.1356 6.23739 64.1365 7.03775C64.1385 7.79693 63.9973 8.54897 63.7211 9.25035C63.4449 9.95173 63.0392 10.5885 62.5274 11.1238L61.2667 12.4504L60.0059 11.1238C59.4941 10.5885 59.0884 9.95172 58.8122 9.25034C58.536 8.54897 58.3948 7.79692 58.3968 7.03775C58.3977 6.23739 58.7004 5.47008 59.2384 4.90413C59.7764 4.33819 60.5058 4.01983 61.2667 4.01888ZM28.2635 13.0755C29.0243 13.0765 29.7537 13.3948 30.2917 13.9608C30.8298 14.5267 31.1324 15.294 31.1333 16.0944C31.1353 16.8536 30.9941 17.6056 30.7179 18.307C30.4417 19.0084 30.036 19.6451 29.5242 20.1804L28.2635 21.507L27.0027 20.1804C26.491 19.6451 26.0852 19.0083 25.809 18.307C25.5328 17.6056 25.3916 16.8536 25.3936 16.0944C25.3945 15.294 25.6972 14.5267 26.2352 13.9608C26.7732 13.3948 27.5026 13.0765 28.2635 13.0755ZM17.9751 29.2371C19.8179 25.4242 21.141 23.6932 24.2054 20.8817C24.6198 21.825 24.274 21.5812 24.9732 22.3153L26.8285 24.2669V28.1699H29.6984V24.2669L31.5537 22.3152C32.3327 21.5001 32.9503 20.5306 33.3707 19.4628C33.7912 18.395 34.0061 17.2501 34.0031 16.0944C34.0041 15.1931 34.3741 15.594 34.0031 14.7815C38.3138 13.1675 42.3608 12.8212 46.9174 13.2582C51.4741 13.6951 55.2194 14.3911 59.1815 16.7983L59.8317 22.1321H62.7016L62.5274 19.1133C67.1853 22.7181 69.7406 26.3078 71.9613 31.9244C72.9378 34.3764 73.945 37.6979 74.3155 40.3277C74.3169 40.3379 74.6504 39.9814 74.6518 39.9916C74.6634 40.0652 74.6518 40.3277 75.2801 39.9824C71.2727 40.8526 66.2022 41.5941 60.4156 42.1565L61.0624 41.0228C61.1932 40.7937 61.2639 40.5322 61.2672 40.2649C61.2704 39.9977 61.2062 39.7344 61.0811 39.5018C60.9559 39.2692 60.7743 39.0758 60.5548 38.9412C60.3353 38.8067 60.0858 38.7358 59.8317 38.736H54.092C53.793 38.736 53.5014 38.8342 53.258 39.0171L43.5877 46.2832H37.8821L44.9814 39.882C45.204 39.6813 45.3628 39.4137 45.4364 39.1152C45.5101 38.8166 45.495 38.5015 45.3933 38.2123C45.2916 37.923 45.1081 37.6735 44.8675 37.4973C44.6269 37.321 44.3408 37.2265 44.0476 37.2265H35.4381C35.178 37.2266 34.9228 37.3009 34.6998 37.4416L20.6912 46.2832H13.1164C13.0109 46.2832 13.2197 46.2811 13.1164 46.2832C13.0945 45.7962 12.8237 45.2986 12.8237 44.7737C12.8081 39.574 15.7375 33.8735 17.9751 29.2371ZM26.2695 46.2832L35.8355 40.2454H40.1686L33.4724 46.2832H26.2695ZM4.92949 52.0468C6.8074 50.5832 9.02062 49.6695 11.3436 49.3988C11.3558 49.3973 11.3678 49.3958 11.3795 49.3939C11.8583 49.3298 12.3407 49.2991 12.8233 49.302H55.9264L56.6604 51.6277C52.4274 54.0619 47.6809 55.3383 42.8568 55.3398H34.1613L32.2439 52.8747C32.1094 52.7016 31.9399 52.5621 31.7478 52.4664C31.5558 52.3706 31.3459 52.3209 31.1333 52.3209H19.6539C19.3647 52.3208 19.0822 52.4126 18.8434 52.5843C18.6047 52.7561 18.4209 52.9997 18.316 53.2832C18.2112 53.5668 18.1902 53.877 18.256 54.1733C18.3217 54.4696 18.471 54.7381 18.6843 54.9436L19.0957 55.3398H17.9751C16.3726 55.338 14.7729 55.1987 13.1919 54.9232C12.2567 54.7568 11.2794 54.5288 10.2981 54.2487C8.44414 53.7019 6.64593 52.9644 4.92949 52.0468ZM41.0196 68.9247H37.4305L23.3422 55.3398H30.4531L41.0196 68.9247ZM43.5877 76.6303C37.4762 76.6246 33.3862 74.5867 28.2635 71.0806C23.1407 67.5746 18.2787 64.0182 15.7976 58.1429C16.7303 58.2293 17.0503 58.3587 17.9751 58.3587H22.226L35.903 71.5474C36.1677 71.8024 36.5137 71.9438 36.8726 71.9436H44.0472C44.3188 71.9436 44.5849 71.8625 44.8144 71.7097C45.0439 71.557 45.2275 71.3388 45.3438 71.0806C45.4602 70.8224 45.5044 70.5348 45.4715 70.2512C45.4386 69.9676 45.3298 69.6997 45.1579 69.4785L36.5092 58.3587H42.8568C48.5908 58.3568 54.2168 56.7175 59.1345 53.6156C59.4285 53.4302 59.6494 53.1399 59.7571 52.7975C65.6572 52.2485 69.7569 52.1215 73.9792 51.2535C72.6774 58.9234 68.3832 64.4803 62.7016 69.4785C57.02 74.4767 50.9943 76.6392 43.5877 76.6303ZM78.4333 46.769C78.468 46.1067 78.4871 45.4403 78.4871 44.7737C78.4871 43.9397 78.4581 43.129 78.4061 42.3441C78.9051 42.2162 79.3894 42.0811 79.8589 41.939C83.2818 43.0322 84.0519 43.912 84.2023 44.1426C84.0349 44.4009 83.0873 45.4858 78.4333 46.769ZM62.7016 28.1699H59.8317V25.151H62.7016V28.1699ZM29.6984 34.2076H26.8285V31.1888H29.6984V34.2076ZM62.7016 34.2076H59.8317V31.1888H62.7016V34.2076Z" fill="url(#paint0_linear_773_4776)"/>
<path d="M13.1164 46.2832H20.6912L34.6998 37.4416C34.9228 37.3009 35.178 37.2266 35.4381 37.2265H44.0476C44.3408 37.2265 44.6269 37.321 44.8675 37.4973C45.1081 37.6735 45.2916 37.923 45.3933 38.2123C45.495 38.5015 45.5101 38.8166 45.4364 39.1152C45.3628 39.4137 45.204 39.6813 44.9814 39.882L37.8821 46.2832H43.5877L53.258 39.0171C53.5014 38.8342 53.793 38.7359 54.092 38.736H59.8317C60.0858 38.7358 60.3353 38.8067 60.5548 38.9412C60.7743 39.0758 60.9559 39.2692 61.0811 39.5018C61.2062 39.7344 61.2704 39.9977 61.2672 40.2649C61.2639 40.5322 61.1932 40.7937 61.0624 41.0228L60.4156 42.1565C66.2022 41.5941 71.2727 40.8526 75.2801 39.9824C74.6518 40.3277 74.6634 40.0652 74.6518 39.9916C74.6504 39.9814 74.3169 40.3379 74.3155 40.3277C73.945 37.6979 72.9378 34.3764 71.9613 31.9244C69.7406 26.3078 67.1853 22.7181 62.5274 19.1133L62.7016 22.1321H59.8317L59.1815 16.7983C55.2194 14.3911 51.4741 13.6951 46.9174 13.2581C42.3608 12.8212 38.3138 13.1675 34.0031 14.7815C34.3741 15.594 34.0041 15.1931 34.0031 16.0944C34.0061 17.2501 33.7912 18.395 33.3707 19.4628C32.9503 20.5306 32.3327 21.5001 31.5537 22.3152L29.6984 24.2669V28.1699H26.8285V24.2669L24.9732 22.3153C24.274 21.5812 24.6198 21.825 24.2054 20.8817C21.141 23.6932 19.8179 25.4242 17.9751 29.2371C15.7375 33.8735 12.8081 39.574 12.8237 44.7737C12.8237 45.2986 13.0945 45.7962 13.1164 46.2832ZM13.1164 46.2832C13.0109 46.2832 13.2197 46.2811 13.1164 46.2832ZM43.0329 33.7656C43.1662 33.9057 43.3244 34.0169 43.4985 34.0928C43.6726 34.1687 43.8592 34.2077 44.0476 34.2077C44.236 34.2077 44.4226 34.1687 44.5967 34.0928C44.7708 34.0169 44.929 33.9057 45.0623 33.7656L47.3379 31.3718C48.1169 30.5567 48.7344 29.5873 49.1549 28.5195C49.5753 27.4517 49.7903 26.3068 49.7873 25.151C49.7873 23.5497 49.1826 22.014 48.1062 20.8817C47.0298 19.7494 45.5699 19.1133 44.0476 19.1133C42.5253 19.1133 41.0654 19.7494 39.989 20.8817C38.9126 22.014 38.3079 23.5497 38.3079 25.151C38.3049 26.3068 38.5198 27.4517 38.9403 28.5196C39.3607 29.5874 39.9783 30.5569 40.7573 31.372L43.0329 33.7656ZM44.0476 22.1321C44.8084 22.1331 45.5379 22.4515 46.0759 23.0174C46.6139 23.5833 46.9165 24.3506 46.9174 25.151C46.9194 25.9102 46.7782 26.6622 46.502 27.3636C46.2258 28.065 45.8201 28.7018 45.3083 29.2371L44.0476 30.5637L42.7868 29.2371C42.2751 28.7018 41.8694 28.065 41.5932 27.3636C41.317 26.6622 41.1758 25.9102 41.1778 25.151C41.1787 24.3506 41.4813 23.5833 42.0193 23.0174C42.5573 22.4515 43.2867 22.1331 44.0476 22.1321ZM70.085 57.4854C68.2063 61.7169 65.4244 65.435 61.9559 68.3501C58.4875 71.2653 54.4261 73.2988 50.0881 74.2923L49.4868 71.3398C53.3909 70.4454 57.0459 68.6149 60.1673 65.991C63.2886 63.3671 65.792 60.0206 67.4824 56.2122L70.085 57.4854ZM68.5621 36.1931C67.8853 34.055 66.9574 32.014 65.7999 30.1176L68.2149 28.4871C69.5018 30.5954 70.5333 32.8645 71.2855 35.2418L68.5621 36.1931ZM18.3605 41.9118L15.5061 41.5979C16.0629 36.0006 18.102 30.6802 21.3913 26.2418L23.6557 28.0965C20.6962 32.0895 18.8616 36.8761 18.3605 41.9118ZM84.0161 40.3697C85.7672 39.4673 87.0952 38.2675 87.0952 36.5926C87.0952 33.8446 83.5295 31.8567 75.5604 30.1774C72.9128 23.8901 68.6312 18.517 63.2085 14.6766L64.5569 13.2581C65.3359 12.4431 65.9534 11.4737 66.3739 10.406C66.7943 9.33828 67.0093 8.19345 67.0063 7.03775C67.0063 5.43644 66.4016 3.90072 65.3252 2.76842C64.2488 1.63612 62.7889 1 61.2667 1C59.7444 1 58.2845 1.63612 57.2081 2.76842C56.1317 3.90072 55.527 5.43644 55.527 7.03775C55.5251 8.39772 55.8241 9.73948 56.4005 10.9568C48.3564 7.70849 39.4477 7.74558 31.4284 11.0608C30.5638 10.4581 29.56 10.1133 28.524 10.0631C27.4879 10.0129 26.4583 10.2591 25.5446 10.7755C24.631 11.292 23.8676 12.0593 23.3357 12.9959C22.8037 13.9325 22.5231 15.0034 22.5238 16.0944C22.5238 16.2333 22.5274 16.3716 22.5335 16.5095C18.6827 19.751 15.5344 23.8202 13.2994 28.445C10.8576 33.5037 9.59292 39.1002 9.60948 44.7737C9.60948 45.4152 9.62598 46.0264 9.6563 46.6209C6.53687 47.2774 3.6715 48.8892 1.42021 51.2535C1.26587 51.4159 1.14879 51.6132 1.07786 51.8303C1.00694 52.0475 0.984042 52.2788 1.01092 52.5067C1.0378 52.7345 1.11374 52.9529 1.23297 53.1453C1.35219 53.3376 1.51156 53.4988 1.69894 53.6166C4.15016 55.1574 6.78521 56.3486 9.53487 57.1588C10.3304 57.3853 11.1187 57.5802 11.8903 57.7404C14.6184 65.2268 19.6304 71.5496 26.141 75.7183C32.6516 79.8869 40.2929 81.6658 47.8677 80.7763C55.4424 79.8867 62.5226 76.3789 67.999 70.8026C73.4753 65.2262 77.0384 57.8963 78.1298 49.9613C84.3179 48.3979 87.0949 46.5875 87.0949 44.1398C87.0952 42.6664 86.1204 41.4503 84.0161 40.3697ZM84.2012 36.5944C84.0559 36.8209 83.2979 37.6935 79.8577 38.7929C79.2837 38.6218 78.6504 38.4516 77.9239 38.2731C77.6507 36.6696 77.2702 35.0884 76.7853 33.5412C82.8637 35.0012 84.0164 36.3088 84.2012 36.5944ZM59.1188 49.8256L58.3238 47.3162C58.237 47.0446 58.0782 46.8048 57.8661 46.625L58.5911 45.3539C65.2071 44.7754 70.1018 43.9859 74.6518 43.0168C74.6816 43.5923 74.3155 41 74.9881 45.3697C74.6518 42.3445 74.7226 46.8272 74.6518 47.7227C70.2968 48.6767 65.5329 49.2405 59.1188 49.8256ZM54.7144 46.2832H48.5253L54.5519 41.7548H57.2973L54.7144 46.2832ZM61.2667 4.01888C62.0275 4.01983 62.7569 4.33819 63.2949 4.90413C63.8329 5.47008 64.1356 6.23739 64.1365 7.03775C64.1385 7.79693 63.9973 8.54897 63.7211 9.25035C63.4449 9.95173 63.0392 10.5885 62.5274 11.1238L61.2667 12.4504L60.0059 11.1238C59.4941 10.5885 59.0884 9.95172 58.8122 9.25034C58.536 8.54897 58.3948 7.79692 58.3968 7.03775C58.3977 6.23739 58.7004 5.47008 59.2384 4.90413C59.7764 4.33819 60.5058 4.01983 61.2667 4.01888ZM28.2635 13.0755C29.0243 13.0765 29.7537 13.3948 30.2917 13.9608C30.8298 14.5267 31.1324 15.294 31.1333 16.0944C31.1353 16.8536 30.9941 17.6056 30.7179 18.307C30.4417 19.0084 30.036 19.6451 29.5242 20.1804L28.2635 21.507L27.0027 20.1804C26.491 19.6451 26.0852 19.0083 25.809 18.307C25.5328 17.6056 25.3916 16.8536 25.3936 16.0944C25.3945 15.294 25.6972 14.5267 26.2352 13.9608C26.7732 13.3948 27.5026 13.0765 28.2635 13.0755ZM26.2695 46.2832L35.8355 40.2454H40.1686L33.4724 46.2832H26.2695ZM4.92949 52.0468C6.8074 50.5832 9.02062 49.6695 11.3436 49.3988C11.3558 49.3973 11.3678 49.3958 11.3795 49.3939C11.8583 49.3298 12.3407 49.2991 12.8233 49.302H55.9264L56.6604 51.6277C52.4274 54.0619 47.6809 55.3383 42.8568 55.3398H34.1613L32.2439 52.8747C32.1094 52.7016 31.9399 52.5621 31.7478 52.4664C31.5558 52.3706 31.3459 52.3209 31.1333 52.3209H19.6539C19.3647 52.3208 19.0822 52.4126 18.8434 52.5843C18.6047 52.756 18.4209 52.9997 18.316 53.2832C18.2112 53.5668 18.1902 53.877 18.256 54.1733C18.3217 54.4696 18.471 54.7381 18.6843 54.9436L19.0957 55.3398H17.9751C16.3726 55.338 14.7729 55.1987 13.1919 54.9232C12.2567 54.7568 11.2794 54.5288 10.2981 54.2487C8.44414 53.7019 6.64593 52.9644 4.92949 52.0468ZM41.0196 68.9247H37.4305L23.3422 55.3398H30.4531L41.0196 68.9247ZM43.5877 76.6303C37.4762 76.6246 33.3862 74.5867 28.2635 71.0806C23.1407 67.5746 18.2787 64.0182 15.7976 58.1429C16.7303 58.2293 17.0503 58.3587 17.9751 58.3587H22.226L35.903 71.5474C36.1677 71.8024 36.5137 71.9438 36.8726 71.9436H44.0472C44.3188 71.9436 44.5849 71.8625 44.8144 71.7097C45.0439 71.557 45.2275 71.3388 45.3438 71.0806C45.4602 70.8224 45.5044 70.5348 45.4715 70.2512C45.4386 69.9676 45.3298 69.6997 45.1579 69.4785L36.5092 58.3587H42.8568C48.5908 58.3568 54.2168 56.7175 59.1345 53.6156C59.4285 53.4302 59.6494 53.1398 59.7571 52.7975C65.6571 52.2485 69.7569 52.1215 73.9792 51.2535C72.6774 58.9234 68.3832 64.4803 62.7016 69.4785C57.02 74.4767 50.9943 76.6392 43.5877 76.6303ZM78.4333 46.769C78.468 46.1067 78.4871 45.4403 78.4871 44.7737C78.4871 43.9397 78.4581 43.129 78.4061 42.3441C78.9051 42.2162 79.3893 42.0811 79.8589 41.939C83.2818 43.0322 84.0519 43.912 84.2023 44.1426C84.0349 44.4009 83.0873 45.4858 78.4333 46.769ZM62.7016 28.1699H59.8317V25.151H62.7016V28.1699ZM29.6984 34.2076H26.8285V31.1888H29.6984V34.2076ZM62.7016 34.2076H59.8317V31.1888H62.7016V34.2076Z" stroke="white"/>
<defs>
<linearGradient id="paint0_linear_773_4776" x1="72.9833" y1="-0.156862" x2="12.6521" y2="57.6621" gradientUnits="userSpaceOnUse">
<stop stop-color="#BA00A7"/>
<stop offset="1" stop-color="#460FE3"/>
</linearGradient>
</defs>
</svg>
