<svg width="82" height="80" viewBox="0 0 82 80" fill="none" xmlns="http://www.w3.org/2000/svg">
<g clip-path="url(#clip0_773_4766)">
<path d="M30.0669 53.3338H19.0228C17.7116 53.3325 16.4123 53.5877 15.2031 54.0845C8.46793 56.8403 4.08968 63.2745 4.10036 70.4001V80.0004H77.9V70.4001C77.9093 63.2758 73.5304 56.8436 66.7958 54.0884C65.588 53.5903 64.2894 53.3332 62.9775 53.3338H49.2001V49.1112C53.7832 46.7863 56.8435 42.3508 57.3253 37.3339H57.4001C59.4861 37.3378 61.3332 36.0208 61.9625 34.0807C62.5911 32.1406 61.8571 30.026 60.1487 28.8594C61.775 28.1087 62.8267 26.526 62.866 24.7715C62.9047 23.0169 61.9245 21.3913 60.3329 20.5723C59.6349 14.1433 55.2567 8.6583 49.0393 6.42199C48.2806 2.70651 44.9493 0.0229325 41.0669 0.000146157C37.1838 -0.0226402 33.8192 2.62122 33.0151 6.32693C26.6602 8.5613 22.1692 14.1374 21.4479 20.6901C20.0051 21.5306 19.1256 23.0521 19.1343 24.6914C19.1436 26.3307 20.0398 27.8431 21.4912 28.6686C19.6321 29.7317 18.7352 31.8795 19.3031 33.9075C19.8703 35.9355 21.7622 37.3404 23.9169 37.3339H24.6757C25.1575 42.3508 28.2178 46.7863 32.8002 49.1112V53.3338H30.0669ZM6.83368 77.3337V70.4001C6.82634 64.3494 10.5446 58.8865 16.2642 56.5467C17.137 56.1867 18.0753 56.0011 19.0228 56.0005H19.1336V69.0258L16.1174 77.3337H6.83368ZM62.9775 56.0005C63.9251 55.9992 64.864 56.1841 65.7368 56.5428C71.4577 58.8833 75.1767 64.3481 75.1666 70.4001V77.3337H65.883L62.8667 69.0258V56.0005H62.9775ZM60.1334 56.0005V69.4828L61.9625 75.9665H19.8595L21.8669 69.4828V56.0005H27.3336V70.6671H53.3001V56.0005H60.1334ZM50.5668 56.0005V68.0004H30.0669V56.0005H32.8002C32.8002 60.4184 36.4718 64.0004 41.0002 64.0004C45.5292 64.0004 49.2001 60.4184 49.2001 56.0005H50.5668ZM23.9169 26.6673C22.7852 26.6673 21.8669 25.7715 21.8669 24.6673C21.8669 23.5625 22.7852 22.6673 23.9169 22.6673H58.0834C59.2158 22.6673 60.1334 23.5625 60.1334 24.6673C60.1334 25.7715 59.2158 26.6673 58.0834 26.6673H23.9169ZM38.2668 15.5339C40.0332 16.1563 41.9671 16.1563 43.7335 15.5339V20.0007H38.2668V15.5339ZM57.4001 34.6673V30.6673C58.5325 30.6673 59.4501 31.5625 59.4501 32.6673C59.4501 33.7714 58.5325 34.6673 57.4001 34.6673ZM49.0393 10.0842C53.1326 12.5286 55.7345 15.5339 57.5042 20.0007H46.4668V13.9473C47.8501 12.7384 48.7317 11.8706 49.0393 10.0842ZM35.5609 7.4669C36.5157 4.3699 38.1173 3.69763 41.0669 3.69763C44.5235 3.69763 46.6083 5.37642 46.4601 8.26638C46.312 11.1563 43.8289 13.4037 40.864 13.3315C37.8991 13.2592 35.5342 10.894 35.5335 8.00075C35.5335 7.82042 35.5435 7.64073 35.5609 7.4669ZM33.6329 10.0842C33.9252 11.9032 34.1282 12.7188 35.5335 13.9473V20.0007H24.2946C25.6251 15.1262 29.5528 12.6139 33.6329 10.0842ZM21.8669 32.6673C21.8669 31.5625 22.7852 30.6673 23.9169 30.6673H24.6002V34.6673H23.9169C22.7852 34.6673 21.8669 33.7714 21.8669 32.6673ZM27.3336 35.8456V29.334H54.6668V35.8456C54.7842 42.4302 49.419 47.8664 42.6704 48.0005H39.3305C32.582 47.8664 27.2161 42.4302 27.3336 35.8456ZM39.3305 50.6672H42.6704C43.9544 50.6626 45.2309 50.4881 46.4668 50.1496V56.0005C46.4668 58.9458 44.0198 61.3338 41.0002 61.3338C37.9812 61.3338 35.5335 58.9458 35.5335 56.0005V50.1496C36.7694 50.4881 38.0466 50.6626 39.3305 50.6672Z" fill="url(#paint0_linear_773_4766)"/>
<path d="M36.9 32.0006C36.9 33.4733 35.6768 34.6673 34.1667 34.6673C32.6572 34.6673 31.4333 33.4733 31.4333 32.0006C31.4333 30.528 32.6572 29.334 34.1667 29.334C35.6768 29.334 36.9 30.528 36.9 32.0006Z" fill="url(#paint1_linear_773_4766)"/>
<path d="M50.5667 32.0006C50.5667 33.4733 49.3435 34.6673 47.8334 34.6673C46.324 34.6673 45.1001 33.4733 45.1001 32.0006C45.1001 30.528 46.324 29.334 47.8334 29.334C49.3435 29.334 50.5667 30.528 50.5667 32.0006Z" fill="url(#paint2_linear_773_4766)"/>
<path d="M40.5682 37.4023L41.4324 39.9303L47.6297 37.9173L41.9662 32.3906L40.0337 34.276L42.5708 36.7506L40.5682 37.4023Z" fill="url(#paint3_linear_773_4766)"/>
<path d="M43.4003 45.2933L44.0669 42.7067L43.3836 42.5387C40.6363 41.8707 38.2439 40.2262 36.6744 37.9268L34.4009 39.4066C36.3461 42.2575 39.3123 44.2965 42.7183 45.1253L43.4003 45.2933Z" fill="url(#paint4_linear_773_4766)"/>
</g>
<defs>
<linearGradient id="paint0_linear_773_4766" x1="1.95496" y1="18.0938" x2="66.4843" y2="84.235" gradientUnits="userSpaceOnUse">
<stop stop-color="#4E18C0"/>
<stop offset="0.437" stop-color="#6229DB"/>
<stop offset="1" stop-color="#F527ED"/>
</linearGradient>
<linearGradient id="paint1_linear_773_4766" x1="10.9337" y1="9.3339" x2="75.4617" y2="75.4751" gradientUnits="userSpaceOnUse">
<stop stop-color="#4D04E8" stop-opacity="0.94"/>
<stop offset="0.364583" stop-color="#6F1CD5" stop-opacity="0.986667"/>
<stop offset="0.46875" stop-color="#7923CF"/>
<stop offset="1" stop-color="#E916FC"/>
</linearGradient>
<linearGradient id="paint2_linear_773_4766" x1="17.7672" y1="2.66727" x2="82.2951" y2="68.8084" gradientUnits="userSpaceOnUse">
<stop stop-color="#792EC0"/>
<stop offset="0.437" stop-color="#7235AB"/>
<stop offset="1" stop-color="#A400DD"/>
</linearGradient>
<linearGradient id="paint3_linear_773_4766" x1="12.5682" y1="7.7386" x2="77.0962" y2="73.8811" gradientUnits="userSpaceOnUse">
<stop stop-color="#C553D8"/>
<stop offset="0.375" stop-color="#5716E1"/>
<stop offset="0.437" stop-color="#9535E1"/>
<stop offset="1" stop-color="#D51DA1"/>
</linearGradient>
<linearGradient id="paint4_linear_773_4766" x1="8.72655" y1="11.4869" x2="73.2559" y2="77.6281" gradientUnits="userSpaceOnUse">
<stop stop-color="#7336AE"/>
<stop offset="0.437" stop-color="#7236AC"/>
<stop offset="1" stop-color="#6100DD"/>
</linearGradient>
<clipPath id="clip0_773_4766">
<rect width="82" height="80" fill="white"/>
</clipPath>
</defs>
</svg>
